<mxfile host="app.diagrams.net" agent="Mozilla/5.0 (Windows NT 10.0; Win64; x64) AppleWebKit/537.36 (KHTML, like Gecko) Chrome/134.0.0.0 Safari/537.36" version="26.1.1" pages="3">
  <diagram name="BFD" id="42789a77-a242-8287-6e28-9cd8cfd52e62">
    <mxGraphModel dx="1036" dy="543" grid="1" gridSize="10" guides="1" tooltips="1" connect="1" arrows="1" fold="1" page="1" pageScale="1" pageWidth="1100" pageHeight="850" background="none" math="0" shadow="0">
      <root>
        <mxCell id="0" />
        <mxCell id="1" parent="0" />
        <mxCell id="1ea317790d2ca983-1" value="&lt;div&gt;Hệ thống Quản lý Bãi Đỗ Xe&lt;/div&gt;" style="ellipse;whiteSpace=wrap;html=1;rounded=0;shadow=1;comic=0;labelBackgroundColor=none;strokeWidth=1;fontFamily=Verdana;fontSize=12;align=center;" parent="1" vertex="1">
          <mxGeometry x="435" y="150" width="210" height="60" as="geometry" />
        </mxCell>
        <mxCell id="LWkp0k4ehMYQggUEoDoI-14" style="edgeStyle=orthogonalEdgeStyle;rounded=0;orthogonalLoop=1;jettySize=auto;html=1;exitX=0;exitY=0.5;exitDx=0;exitDy=0;entryX=0;entryY=0.5;entryDx=0;entryDy=0;" edge="1" parent="1" source="LWkp0k4ehMYQggUEoDoI-1" target="LWkp0k4ehMYQggUEoDoI-10">
          <mxGeometry relative="1" as="geometry" />
        </mxCell>
        <mxCell id="LWkp0k4ehMYQggUEoDoI-15" style="edgeStyle=orthogonalEdgeStyle;rounded=0;orthogonalLoop=1;jettySize=auto;html=1;exitX=0;exitY=0.5;exitDx=0;exitDy=0;entryX=0;entryY=0.5;entryDx=0;entryDy=0;" edge="1" parent="1" source="LWkp0k4ehMYQggUEoDoI-1" target="LWkp0k4ehMYQggUEoDoI-17">
          <mxGeometry relative="1" as="geometry">
            <mxPoint x="320" y="442.5" as="targetPoint" />
          </mxGeometry>
        </mxCell>
        <mxCell id="LWkp0k4ehMYQggUEoDoI-16" style="edgeStyle=orthogonalEdgeStyle;rounded=0;orthogonalLoop=1;jettySize=auto;html=1;exitX=0;exitY=0.5;exitDx=0;exitDy=0;entryX=0;entryY=0.5;entryDx=0;entryDy=0;" edge="1" parent="1" source="LWkp0k4ehMYQggUEoDoI-1" target="LWkp0k4ehMYQggUEoDoI-18">
          <mxGeometry relative="1" as="geometry">
            <mxPoint x="320" y="487.5" as="targetPoint" />
          </mxGeometry>
        </mxCell>
        <mxCell id="LWkp0k4ehMYQggUEoDoI-21" style="edgeStyle=orthogonalEdgeStyle;rounded=0;orthogonalLoop=1;jettySize=auto;html=1;exitX=0;exitY=0.5;exitDx=0;exitDy=0;entryX=0;entryY=0.5;entryDx=0;entryDy=0;" edge="1" parent="1" source="LWkp0k4ehMYQggUEoDoI-1" target="LWkp0k4ehMYQggUEoDoI-19">
          <mxGeometry relative="1" as="geometry" />
        </mxCell>
        <mxCell id="LWkp0k4ehMYQggUEoDoI-22" style="edgeStyle=orthogonalEdgeStyle;rounded=0;orthogonalLoop=1;jettySize=auto;html=1;exitX=0;exitY=0.5;exitDx=0;exitDy=0;entryX=0;entryY=0.5;entryDx=0;entryDy=0;" edge="1" parent="1" source="LWkp0k4ehMYQggUEoDoI-1" target="LWkp0k4ehMYQggUEoDoI-20">
          <mxGeometry relative="1" as="geometry" />
        </mxCell>
        <mxCell id="LWkp0k4ehMYQggUEoDoI-1" value="Quản lý" style="rounded=0;whiteSpace=wrap;html=1;shadow=1;" vertex="1" parent="1">
          <mxGeometry x="320" y="300" width="120" height="60" as="geometry" />
        </mxCell>
        <mxCell id="LWkp0k4ehMYQggUEoDoI-31" style="edgeStyle=orthogonalEdgeStyle;rounded=0;orthogonalLoop=1;jettySize=auto;html=1;exitX=0;exitY=0.5;exitDx=0;exitDy=0;entryX=0;entryY=0.5;entryDx=0;entryDy=0;" edge="1" parent="1" source="LWkp0k4ehMYQggUEoDoI-2" target="LWkp0k4ehMYQggUEoDoI-23">
          <mxGeometry relative="1" as="geometry" />
        </mxCell>
        <mxCell id="LWkp0k4ehMYQggUEoDoI-35" style="edgeStyle=orthogonalEdgeStyle;rounded=0;orthogonalLoop=1;jettySize=auto;html=1;exitX=0;exitY=0.5;exitDx=0;exitDy=0;entryX=0;entryY=0.5;entryDx=0;entryDy=0;" edge="1" parent="1" source="LWkp0k4ehMYQggUEoDoI-2" target="LWkp0k4ehMYQggUEoDoI-24">
          <mxGeometry relative="1" as="geometry" />
        </mxCell>
        <mxCell id="LWkp0k4ehMYQggUEoDoI-2" value="&lt;div&gt;Khách hàng&lt;/div&gt;" style="rounded=0;whiteSpace=wrap;html=1;shadow=1;" vertex="1" parent="1">
          <mxGeometry x="480" y="300" width="120" height="60" as="geometry" />
        </mxCell>
        <mxCell id="LWkp0k4ehMYQggUEoDoI-32" style="edgeStyle=orthogonalEdgeStyle;rounded=0;orthogonalLoop=1;jettySize=auto;html=1;exitX=0;exitY=0.5;exitDx=0;exitDy=0;entryX=0;entryY=0.75;entryDx=0;entryDy=0;" edge="1" parent="1" source="LWkp0k4ehMYQggUEoDoI-5" target="LWkp0k4ehMYQggUEoDoI-29">
          <mxGeometry relative="1" as="geometry" />
        </mxCell>
        <mxCell id="LWkp0k4ehMYQggUEoDoI-41" style="edgeStyle=orthogonalEdgeStyle;rounded=0;orthogonalLoop=1;jettySize=auto;html=1;exitX=0;exitY=0.5;exitDx=0;exitDy=0;entryX=0;entryY=0.5;entryDx=0;entryDy=0;" edge="1" parent="1" source="LWkp0k4ehMYQggUEoDoI-5" target="LWkp0k4ehMYQggUEoDoI-30">
          <mxGeometry relative="1" as="geometry" />
        </mxCell>
        <mxCell id="LWkp0k4ehMYQggUEoDoI-42" style="edgeStyle=orthogonalEdgeStyle;rounded=0;orthogonalLoop=1;jettySize=auto;html=1;exitX=0;exitY=0.5;exitDx=0;exitDy=0;entryX=0;entryY=0.5;entryDx=0;entryDy=0;" edge="1" parent="1" source="LWkp0k4ehMYQggUEoDoI-5" target="LWkp0k4ehMYQggUEoDoI-33">
          <mxGeometry relative="1" as="geometry" />
        </mxCell>
        <mxCell id="LWkp0k4ehMYQggUEoDoI-5" value="Nhân viên&amp;nbsp;" style="rounded=0;whiteSpace=wrap;html=1;shadow=1;" vertex="1" parent="1">
          <mxGeometry x="640" y="300" width="120" height="60" as="geometry" />
        </mxCell>
        <mxCell id="LWkp0k4ehMYQggUEoDoI-7" value="" style="edgeStyle=none;rounded=1;html=1;labelBackgroundColor=none;startArrow=none;startFill=0;startSize=5;endArrow=classicThin;endFill=1;endSize=5;jettySize=auto;orthogonalLoop=1;strokeColor=#B3B3B3;strokeWidth=1;fontFamily=Verdana;fontSize=12;entryX=0.5;entryY=0;entryDx=0;entryDy=0;exitX=0.5;exitY=1;exitDx=0;exitDy=0;" edge="1" parent="1" source="1ea317790d2ca983-1" target="LWkp0k4ehMYQggUEoDoI-5">
          <mxGeometry relative="1" as="geometry">
            <mxPoint x="559.9999999999998" y="240" as="sourcePoint" />
            <mxPoint x="808.6800000000001" y="322.28" as="targetPoint" />
          </mxGeometry>
        </mxCell>
        <mxCell id="LWkp0k4ehMYQggUEoDoI-8" value="" style="edgeStyle=none;rounded=1;html=1;labelBackgroundColor=none;startArrow=none;startFill=0;startSize=5;endArrow=classicThin;endFill=1;endSize=5;jettySize=auto;orthogonalLoop=1;strokeColor=#B3B3B3;strokeWidth=1;fontFamily=Verdana;fontSize=12;entryX=0.5;entryY=0;entryDx=0;entryDy=0;exitX=0.5;exitY=1;exitDx=0;exitDy=0;" edge="1" parent="1" source="1ea317790d2ca983-1" target="LWkp0k4ehMYQggUEoDoI-1">
          <mxGeometry relative="1" as="geometry">
            <mxPoint x="559.9999999999998" y="240" as="sourcePoint" />
            <mxPoint x="600" y="290" as="targetPoint" />
          </mxGeometry>
        </mxCell>
        <mxCell id="LWkp0k4ehMYQggUEoDoI-9" value="" style="edgeStyle=none;rounded=1;html=1;labelBackgroundColor=none;startArrow=none;startFill=0;startSize=5;endArrow=classicThin;endFill=1;endSize=5;jettySize=auto;orthogonalLoop=1;strokeColor=#B3B3B3;strokeWidth=1;fontFamily=Verdana;fontSize=12;exitX=0.5;exitY=1;exitDx=0;exitDy=0;" edge="1" parent="1" source="1ea317790d2ca983-1" target="LWkp0k4ehMYQggUEoDoI-2">
          <mxGeometry relative="1" as="geometry">
            <mxPoint x="560" y="240" as="sourcePoint" />
            <mxPoint x="350" y="310" as="targetPoint" />
          </mxGeometry>
        </mxCell>
        <mxCell id="LWkp0k4ehMYQggUEoDoI-10" value="Báo cáo người dùng" style="rounded=0;whiteSpace=wrap;html=1;" vertex="1" parent="1">
          <mxGeometry x="320" y="380" width="120" height="35" as="geometry" />
        </mxCell>
        <mxCell id="LWkp0k4ehMYQggUEoDoI-17" value="Báo cáo xe" style="rounded=0;whiteSpace=wrap;html=1;" vertex="1" parent="1">
          <mxGeometry x="320" y="425" width="120" height="35" as="geometry" />
        </mxCell>
        <mxCell id="LWkp0k4ehMYQggUEoDoI-18" value="Báo cáo khu vực" style="rounded=0;whiteSpace=wrap;html=1;" vertex="1" parent="1">
          <mxGeometry x="320" y="470" width="120" height="35" as="geometry" />
        </mxCell>
        <mxCell id="LWkp0k4ehMYQggUEoDoI-19" value="Báo cáo thẻ" style="rounded=0;whiteSpace=wrap;html=1;" vertex="1" parent="1">
          <mxGeometry x="320" y="515" width="120" height="35" as="geometry" />
        </mxCell>
        <mxCell id="LWkp0k4ehMYQggUEoDoI-20" value="Báo cáo thanh toán" style="rounded=0;whiteSpace=wrap;html=1;" vertex="1" parent="1">
          <mxGeometry x="320" y="560" width="120" height="35" as="geometry" />
        </mxCell>
        <mxCell id="LWkp0k4ehMYQggUEoDoI-23" value="Biên lai thanh toán&lt;div&gt;(thời gian, số tiền)&lt;/div&gt;" style="rounded=0;whiteSpace=wrap;html=1;" vertex="1" parent="1">
          <mxGeometry x="480" y="425" width="120" height="35" as="geometry" />
        </mxCell>
        <mxCell id="LWkp0k4ehMYQggUEoDoI-24" value="Thông tin xe,&amp;nbsp;yêu cầu đỗ xe" style="rounded=0;whiteSpace=wrap;html=1;" vertex="1" parent="1">
          <mxGeometry x="480" y="380" width="120" height="35" as="geometry" />
        </mxCell>
        <mxCell id="LWkp0k4ehMYQggUEoDoI-29" value="&lt;div&gt;&amp;nbsp;Yêu cầu xử lý (thanh toán, kiểm tra)&lt;/div&gt;" style="rounded=0;whiteSpace=wrap;html=1;" vertex="1" parent="1">
          <mxGeometry x="640" y="470" width="120" height="35" as="geometry" />
        </mxCell>
        <mxCell id="LWkp0k4ehMYQggUEoDoI-30" value="Thông tin thời gian vào/ra" style="rounded=0;whiteSpace=wrap;html=1;shadow=0;" vertex="1" parent="1">
          <mxGeometry x="640" y="380" width="120" height="35" as="geometry" />
        </mxCell>
        <mxCell id="LWkp0k4ehMYQggUEoDoI-33" value="&lt;div&gt;Thông tin thanh toán&lt;/div&gt;" style="rounded=0;whiteSpace=wrap;html=1;" vertex="1" parent="1">
          <mxGeometry x="640" y="425" width="120" height="35" as="geometry" />
        </mxCell>
      </root>
    </mxGraphModel>
  </diagram>
  <diagram id="JRgFAtxAX1ms50a2u5rC" name="DFD Mức 0">
    <mxGraphModel dx="1594" dy="835" grid="1" gridSize="10" guides="1" tooltips="1" connect="1" arrows="1" fold="1" page="1" pageScale="1" pageWidth="1169" pageHeight="827" math="0" shadow="0">
      <root>
        <mxCell id="0" />
        <mxCell id="1" parent="0" />
        <mxCell id="uf_M3nVE_YILVzkpHNI8-6" style="edgeStyle=orthogonalEdgeStyle;rounded=0;orthogonalLoop=1;jettySize=auto;html=1;exitX=0.5;exitY=1;exitDx=0;exitDy=0;entryX=0.5;entryY=0;entryDx=0;entryDy=0;" edge="1" parent="1" source="zHXpxbQKyH1bunrXx9_Y-1" target="zHXpxbQKyH1bunrXx9_Y-2">
          <mxGeometry relative="1" as="geometry">
            <Array as="points">
              <mxPoint x="595" y="40" />
              <mxPoint x="410" y="40" />
              <mxPoint x="410" y="130" />
              <mxPoint x="215" y="130" />
            </Array>
          </mxGeometry>
        </mxCell>
        <mxCell id="uf_M3nVE_YILVzkpHNI8-7" style="edgeStyle=orthogonalEdgeStyle;rounded=0;orthogonalLoop=1;jettySize=auto;html=1;exitX=0.5;exitY=1;exitDx=0;exitDy=0;entryX=0.5;entryY=0;entryDx=0;entryDy=0;" edge="1" parent="1" source="zHXpxbQKyH1bunrXx9_Y-1" target="zHXpxbQKyH1bunrXx9_Y-4">
          <mxGeometry relative="1" as="geometry">
            <Array as="points">
              <mxPoint x="595" y="40" />
              <mxPoint x="605" y="40" />
            </Array>
          </mxGeometry>
        </mxCell>
        <mxCell id="uf_M3nVE_YILVzkpHNI8-8" style="edgeStyle=orthogonalEdgeStyle;rounded=0;orthogonalLoop=1;jettySize=auto;html=1;exitX=0;exitY=0.5;exitDx=0;exitDy=0;" edge="1" parent="1" source="zHXpxbQKyH1bunrXx9_Y-1" target="zHXpxbQKyH1bunrXx9_Y-3">
          <mxGeometry relative="1" as="geometry">
            <Array as="points">
              <mxPoint x="410" y="40" />
            </Array>
          </mxGeometry>
        </mxCell>
        <mxCell id="zHXpxbQKyH1bunrXx9_Y-1" value="&lt;b&gt;HỆ THỐNG QUẢN LÝ BÃI ĐỖ XE&lt;/b&gt;" style="rounded=0;whiteSpace=wrap;html=1;shadow=1;" vertex="1" parent="1">
          <mxGeometry x="490" y="10" width="210" height="60" as="geometry" />
        </mxCell>
        <mxCell id="uf_M3nVE_YILVzkpHNI8-126" style="rounded=0;orthogonalLoop=1;jettySize=auto;html=1;exitX=0;exitY=0.5;exitDx=0;exitDy=0;edgeStyle=orthogonalEdgeStyle;" edge="1" parent="1" source="zHXpxbQKyH1bunrXx9_Y-2" target="uf_M3nVE_YILVzkpHNI8-9">
          <mxGeometry relative="1" as="geometry">
            <Array as="points">
              <mxPoint x="130" y="210" />
            </Array>
          </mxGeometry>
        </mxCell>
        <mxCell id="uf_M3nVE_YILVzkpHNI8-127" value="&lt;span style=&quot;font-size: 12px; text-align: left; text-wrap-mode: wrap; background-color: rgb(251, 251, 251);&quot;&gt;Yêu cầu quản lý người dùng&lt;/span&gt;" style="edgeLabel;html=1;align=center;verticalAlign=middle;resizable=0;points=[];" vertex="1" connectable="0" parent="uf_M3nVE_YILVzkpHNI8-126">
          <mxGeometry x="-0.1899" y="-2" relative="1" as="geometry">
            <mxPoint y="56" as="offset" />
          </mxGeometry>
        </mxCell>
        <mxCell id="uf_M3nVE_YILVzkpHNI8-132" style="rounded=0;orthogonalLoop=1;jettySize=auto;html=1;exitX=0.5;exitY=1;exitDx=0;exitDy=0;entryX=0;entryY=0;entryDx=0;entryDy=0;edgeStyle=orthogonalEdgeStyle;" edge="1" parent="1" source="zHXpxbQKyH1bunrXx9_Y-2" target="uf_M3nVE_YILVzkpHNI8-11">
          <mxGeometry relative="1" as="geometry">
            <Array as="points">
              <mxPoint x="215" y="190" />
              <mxPoint x="210" y="190" />
              <mxPoint x="210" y="440" />
              <mxPoint x="349" y="440" />
            </Array>
          </mxGeometry>
        </mxCell>
        <mxCell id="uf_M3nVE_YILVzkpHNI8-151" value="&#xa;&lt;span style=&quot;color: rgb(0, 0, 0); font-family: Helvetica; font-size: 12px; font-style: normal; font-variant-ligatures: normal; font-variant-caps: normal; font-weight: 400; letter-spacing: normal; orphans: 2; text-align: left; text-indent: 0px; text-transform: none; widows: 2; word-spacing: 0px; -webkit-text-stroke-width: 0px; white-space: normal; background-color: rgb(251, 251, 251); text-decoration-thickness: initial; text-decoration-style: initial; text-decoration-color: initial; display: inline !important; float: none;&quot;&gt;Yêu cầu quản lý xe&lt;/span&gt;&#xa;&#xa;" style="edgeLabel;html=1;align=center;verticalAlign=middle;resizable=0;points=[];" vertex="1" connectable="0" parent="uf_M3nVE_YILVzkpHNI8-132">
          <mxGeometry x="-0.3483" relative="1" as="geometry">
            <mxPoint x="5" y="68" as="offset" />
          </mxGeometry>
        </mxCell>
        <mxCell id="uf_M3nVE_YILVzkpHNI8-165" style="edgeStyle=orthogonalEdgeStyle;rounded=0;orthogonalLoop=1;jettySize=auto;html=1;exitX=0;exitY=1;exitDx=0;exitDy=0;" edge="1" parent="1" source="zHXpxbQKyH1bunrXx9_Y-2" target="uf_M3nVE_YILVzkpHNI8-91">
          <mxGeometry relative="1" as="geometry">
            <Array as="points">
              <mxPoint x="170" y="230" />
              <mxPoint x="170" y="440" />
              <mxPoint x="605" y="440" />
            </Array>
          </mxGeometry>
        </mxCell>
        <mxCell id="uf_M3nVE_YILVzkpHNI8-166" value="&lt;span style=&quot;font-size: 12px; text-align: left; text-wrap-mode: wrap; background-color: rgb(251, 251, 251);&quot;&gt;Yêu cầu quản lý khu vực&lt;/span&gt;" style="edgeLabel;html=1;align=center;verticalAlign=middle;resizable=0;points=[];" vertex="1" connectable="0" parent="uf_M3nVE_YILVzkpHNI8-165">
          <mxGeometry x="0.6296" relative="1" as="geometry">
            <mxPoint x="-322" y="-95" as="offset" />
          </mxGeometry>
        </mxCell>
        <mxCell id="uf_M3nVE_YILVzkpHNI8-170" style="edgeStyle=orthogonalEdgeStyle;rounded=0;orthogonalLoop=1;jettySize=auto;html=1;exitX=1;exitY=0;exitDx=0;exitDy=0;entryX=1;entryY=0;entryDx=0;entryDy=0;startArrow=classic;startFill=1;" edge="1" parent="1" source="zHXpxbQKyH1bunrXx9_Y-2" target="uf_M3nVE_YILVzkpHNI8-12">
          <mxGeometry relative="1" as="geometry">
            <Array as="points">
              <mxPoint x="270" y="170" />
              <mxPoint x="878" y="170" />
            </Array>
          </mxGeometry>
        </mxCell>
        <mxCell id="uf_M3nVE_YILVzkpHNI8-171" value="&lt;div&gt;Yêu cầu quản lý thẻ&lt;/div&gt;" style="edgeLabel;html=1;align=center;verticalAlign=middle;resizable=0;points=[];" vertex="1" connectable="0" parent="uf_M3nVE_YILVzkpHNI8-170">
          <mxGeometry x="-0.3726" y="1" relative="1" as="geometry">
            <mxPoint x="-197" as="offset" />
          </mxGeometry>
        </mxCell>
        <mxCell id="uf_M3nVE_YILVzkpHNI8-172" value="&lt;span style=&quot;font-size: 12px; text-align: left; text-wrap-mode: wrap; background-color: rgb(251, 251, 251);&quot;&gt;Báo cáo thẻ&lt;/span&gt;" style="edgeLabel;html=1;align=center;verticalAlign=middle;resizable=0;points=[];" vertex="1" connectable="0" parent="uf_M3nVE_YILVzkpHNI8-170">
          <mxGeometry x="0.6313" y="-1" relative="1" as="geometry">
            <mxPoint y="-49" as="offset" />
          </mxGeometry>
        </mxCell>
        <mxCell id="uf_M3nVE_YILVzkpHNI8-178" style="edgeStyle=orthogonalEdgeStyle;rounded=0;orthogonalLoop=1;jettySize=auto;html=1;exitX=0.25;exitY=0;exitDx=0;exitDy=0;startArrow=classic;startFill=1;" edge="1" parent="1" source="zHXpxbQKyH1bunrXx9_Y-2" target="uf_M3nVE_YILVzkpHNI8-83">
          <mxGeometry relative="1" as="geometry">
            <Array as="points">
              <mxPoint x="188" y="150" />
              <mxPoint x="1080" y="150" />
            </Array>
          </mxGeometry>
        </mxCell>
        <mxCell id="uf_M3nVE_YILVzkpHNI8-179" value="&lt;div&gt;Yêu cầu quản lý thanh toán&lt;/div&gt;" style="edgeLabel;html=1;align=center;verticalAlign=middle;resizable=0;points=[];" vertex="1" connectable="0" parent="uf_M3nVE_YILVzkpHNI8-178">
          <mxGeometry x="0.0471" y="-2" relative="1" as="geometry">
            <mxPoint x="-474" as="offset" />
          </mxGeometry>
        </mxCell>
        <mxCell id="uf_M3nVE_YILVzkpHNI8-181" value="&lt;span style=&quot;font-size: 12px; text-align: left; text-wrap-mode: wrap; background-color: rgb(251, 251, 251);&quot;&gt;Báo cáo thanh toán&lt;/span&gt;" style="edgeLabel;html=1;align=center;verticalAlign=middle;resizable=0;points=[];" vertex="1" connectable="0" parent="uf_M3nVE_YILVzkpHNI8-178">
          <mxGeometry x="0.6279" y="1" relative="1" as="geometry">
            <mxPoint y="43" as="offset" />
          </mxGeometry>
        </mxCell>
        <mxCell id="zHXpxbQKyH1bunrXx9_Y-2" value="&lt;div&gt;Quản lý&lt;/div&gt;" style="rounded=0;whiteSpace=wrap;html=1;shadow=0;" vertex="1" parent="1">
          <mxGeometry x="160" y="190" width="110" height="40" as="geometry" />
        </mxCell>
        <mxCell id="uf_M3nVE_YILVzkpHNI8-120" style="rounded=0;orthogonalLoop=1;jettySize=auto;html=1;exitX=0.5;exitY=1;exitDx=0;exitDy=0;entryX=0.5;entryY=0;entryDx=0;entryDy=0;" edge="1" parent="1" source="zHXpxbQKyH1bunrXx9_Y-3" target="uf_M3nVE_YILVzkpHNI8-11">
          <mxGeometry relative="1" as="geometry" />
        </mxCell>
        <mxCell id="uf_M3nVE_YILVzkpHNI8-121" value="&lt;span style=&quot;font-size: 12px; text-wrap-mode: wrap; background-color: rgb(251, 251, 251);&quot;&gt;Thông tin xe&lt;/span&gt;" style="edgeLabel;html=1;align=center;verticalAlign=middle;resizable=0;points=[];" vertex="1" connectable="0" parent="uf_M3nVE_YILVzkpHNI8-120">
          <mxGeometry x="-0.0532" y="2" relative="1" as="geometry">
            <mxPoint as="offset" />
          </mxGeometry>
        </mxCell>
        <mxCell id="uf_M3nVE_YILVzkpHNI8-122" style="rounded=0;orthogonalLoop=1;jettySize=auto;html=1;exitX=0.5;exitY=1;exitDx=0;exitDy=0;entryX=0;entryY=0;entryDx=0;entryDy=0;" edge="1" parent="1" source="zHXpxbQKyH1bunrXx9_Y-3" target="uf_M3nVE_YILVzkpHNI8-12">
          <mxGeometry relative="1" as="geometry" />
        </mxCell>
        <mxCell id="uf_M3nVE_YILVzkpHNI8-123" value="&lt;span style=&quot;font-size: 12px; text-align: left; text-wrap-mode: wrap; background-color: rgb(251, 251, 251);&quot;&gt;Yêu cầu đỗ xe&lt;/span&gt;" style="edgeLabel;html=1;align=center;verticalAlign=middle;resizable=0;points=[];" vertex="1" connectable="0" parent="uf_M3nVE_YILVzkpHNI8-122">
          <mxGeometry x="-0.0743" y="-4" relative="1" as="geometry">
            <mxPoint as="offset" />
          </mxGeometry>
        </mxCell>
        <mxCell id="uf_M3nVE_YILVzkpHNI8-124" style="rounded=0;orthogonalLoop=1;jettySize=auto;html=1;exitX=0.5;exitY=1;exitDx=0;exitDy=0;entryX=0.5;entryY=0;entryDx=0;entryDy=0;" edge="1" parent="1" source="zHXpxbQKyH1bunrXx9_Y-3" target="uf_M3nVE_YILVzkpHNI8-83">
          <mxGeometry relative="1" as="geometry" />
        </mxCell>
        <mxCell id="uf_M3nVE_YILVzkpHNI8-125" value="&lt;div&gt;Biên lai thanh toán&lt;/div&gt;" style="edgeLabel;html=1;align=center;verticalAlign=middle;resizable=0;points=[];" vertex="1" connectable="0" parent="uf_M3nVE_YILVzkpHNI8-124">
          <mxGeometry x="-0.5396" y="-1" relative="1" as="geometry">
            <mxPoint x="1" as="offset" />
          </mxGeometry>
        </mxCell>
        <mxCell id="zHXpxbQKyH1bunrXx9_Y-3" value="&lt;div&gt;Khách hàng&lt;/div&gt;" style="rounded=0;whiteSpace=wrap;html=1;shadow=0;" vertex="1" parent="1">
          <mxGeometry x="370" y="190" width="110" height="40" as="geometry" />
        </mxCell>
        <mxCell id="uf_M3nVE_YILVzkpHNI8-116" style="rounded=0;orthogonalLoop=1;jettySize=auto;html=1;exitX=0.5;exitY=1;exitDx=0;exitDy=0;" edge="1" parent="1" source="zHXpxbQKyH1bunrXx9_Y-4" target="uf_M3nVE_YILVzkpHNI8-12">
          <mxGeometry relative="1" as="geometry" />
        </mxCell>
        <mxCell id="uf_M3nVE_YILVzkpHNI8-117" value="&lt;span style=&quot;font-size: 12px; text-wrap-mode: wrap; background-color: rgb(251, 251, 251);&quot;&gt;Thông tin thời gian vào/ra&lt;/span&gt;" style="edgeLabel;html=1;align=center;verticalAlign=middle;resizable=0;points=[];" vertex="1" connectable="0" parent="uf_M3nVE_YILVzkpHNI8-116">
          <mxGeometry x="-0.2221" y="-4" relative="1" as="geometry">
            <mxPoint as="offset" />
          </mxGeometry>
        </mxCell>
        <mxCell id="uf_M3nVE_YILVzkpHNI8-118" style="rounded=0;orthogonalLoop=1;jettySize=auto;html=1;exitX=0.5;exitY=1;exitDx=0;exitDy=0;entryX=0.5;entryY=0;entryDx=0;entryDy=0;" edge="1" parent="1" source="zHXpxbQKyH1bunrXx9_Y-4" target="uf_M3nVE_YILVzkpHNI8-83">
          <mxGeometry relative="1" as="geometry" />
        </mxCell>
        <mxCell id="uf_M3nVE_YILVzkpHNI8-119" value="&lt;span style=&quot;font-size: 12px; text-wrap-mode: wrap; background-color: rgb(251, 251, 251);&quot;&gt;Thông tin thanh toán&lt;/span&gt;" style="edgeLabel;html=1;align=center;verticalAlign=middle;resizable=0;points=[];" vertex="1" connectable="0" parent="uf_M3nVE_YILVzkpHNI8-118">
          <mxGeometry x="-0.1181" y="2" relative="1" as="geometry">
            <mxPoint y="1" as="offset" />
          </mxGeometry>
        </mxCell>
        <mxCell id="zHXpxbQKyH1bunrXx9_Y-4" value="&lt;div&gt;Nhân viên&lt;/div&gt;" style="rounded=0;whiteSpace=wrap;html=1;shadow=0;" vertex="1" parent="1">
          <mxGeometry x="549.91" y="190" width="110" height="40" as="geometry" />
        </mxCell>
        <mxCell id="uf_M3nVE_YILVzkpHNI8-22" style="edgeStyle=orthogonalEdgeStyle;rounded=0;orthogonalLoop=1;jettySize=auto;html=1;exitX=0;exitY=0.5;exitDx=0;exitDy=0;entryX=0;entryY=0.5;entryDx=0;entryDy=0;" edge="1" parent="1">
          <mxGeometry relative="1" as="geometry">
            <mxPoint x="109.99999999999994" y="475.98" as="sourcePoint" />
            <mxPoint x="130" y="575.9800000000001" as="targetPoint" />
            <Array as="points">
              <mxPoint x="70" y="475.98" />
              <mxPoint x="70" y="575.98" />
            </Array>
          </mxGeometry>
        </mxCell>
        <mxCell id="uf_M3nVE_YILVzkpHNI8-115" value="Lưu/Đọc" style="edgeLabel;html=1;align=center;verticalAlign=middle;resizable=0;points=[];" vertex="1" connectable="0" parent="uf_M3nVE_YILVzkpHNI8-22">
          <mxGeometry x="0.6925" y="-1" relative="1" as="geometry">
            <mxPoint x="-9" y="-1" as="offset" />
          </mxGeometry>
        </mxCell>
        <mxCell id="uf_M3nVE_YILVzkpHNI8-24" style="edgeStyle=orthogonalEdgeStyle;rounded=0;orthogonalLoop=1;jettySize=auto;html=1;exitX=0;exitY=0.5;exitDx=0;exitDy=0;entryX=0;entryY=0.5;entryDx=0;entryDy=0;" edge="1" parent="1" source="uf_M3nVE_YILVzkpHNI8-9" target="uf_M3nVE_YILVzkpHNI8-16">
          <mxGeometry relative="1" as="geometry">
            <Array as="points">
              <mxPoint x="70" y="476" />
              <mxPoint x="70" y="536" />
            </Array>
          </mxGeometry>
        </mxCell>
        <mxCell id="uf_M3nVE_YILVzkpHNI8-114" value="Lưu/Đọc" style="edgeLabel;html=1;align=center;verticalAlign=middle;resizable=0;points=[];" vertex="1" connectable="0" parent="uf_M3nVE_YILVzkpHNI8-24">
          <mxGeometry x="0.5257" y="-1" relative="1" as="geometry">
            <mxPoint x="-2" y="-1" as="offset" />
          </mxGeometry>
        </mxCell>
        <mxCell id="uf_M3nVE_YILVzkpHNI8-138" style="edgeStyle=orthogonalEdgeStyle;rounded=0;orthogonalLoop=1;jettySize=auto;html=1;exitX=0;exitY=0;exitDx=0;exitDy=0;entryX=0;entryY=0.25;entryDx=0;entryDy=0;" edge="1" parent="1" source="uf_M3nVE_YILVzkpHNI8-9" target="zHXpxbQKyH1bunrXx9_Y-2">
          <mxGeometry relative="1" as="geometry">
            <Array as="points">
              <mxPoint x="90" y="459" />
              <mxPoint x="90" y="200" />
            </Array>
          </mxGeometry>
        </mxCell>
        <mxCell id="uf_M3nVE_YILVzkpHNI8-141" value="&lt;span style=&quot;font-size: 12px; text-align: left; text-wrap-mode: wrap; background-color: rgb(251, 251, 251);&quot;&gt;Báo cáo người dùng&lt;/span&gt;" style="edgeLabel;html=1;align=center;verticalAlign=middle;resizable=0;points=[];" vertex="1" connectable="0" parent="uf_M3nVE_YILVzkpHNI8-138">
          <mxGeometry x="0.2594" relative="1" as="geometry">
            <mxPoint y="80" as="offset" />
          </mxGeometry>
        </mxCell>
        <mxCell id="uf_M3nVE_YILVzkpHNI8-9" value="(1) Quản lý&amp;nbsp;&lt;span style=&quot;background-color: transparent; color: light-dark(rgb(0, 0, 0), rgb(255, 255, 255));&quot;&gt;người dùng &amp;amp;&amp;nbsp;&lt;/span&gt;&lt;span style=&quot;background-color: transparent; color: light-dark(rgb(0, 0, 0), rgb(255, 255, 255));&quot;&gt;vai trò&lt;/span&gt;" style="ellipse;whiteSpace=wrap;html=1;" vertex="1" parent="1">
          <mxGeometry x="110" y="451" width="110" height="50" as="geometry" />
        </mxCell>
        <mxCell id="uf_M3nVE_YILVzkpHNI8-28" style="edgeStyle=orthogonalEdgeStyle;rounded=0;orthogonalLoop=1;jettySize=auto;html=1;exitX=0;exitY=0.5;exitDx=0;exitDy=0;entryX=0;entryY=0.5;entryDx=0;entryDy=0;" edge="1" parent="1" source="uf_M3nVE_YILVzkpHNI8-11" target="uf_M3nVE_YILVzkpHNI8-26">
          <mxGeometry relative="1" as="geometry" />
        </mxCell>
        <mxCell id="uf_M3nVE_YILVzkpHNI8-84" value="Lưu/Đọc" style="edgeLabel;html=1;align=center;verticalAlign=middle;resizable=0;points=[];" vertex="1" connectable="0" parent="uf_M3nVE_YILVzkpHNI8-28">
          <mxGeometry x="0.5701" y="-2" relative="1" as="geometry">
            <mxPoint x="-10" y="-2" as="offset" />
          </mxGeometry>
        </mxCell>
        <mxCell id="uf_M3nVE_YILVzkpHNI8-29" style="edgeStyle=orthogonalEdgeStyle;rounded=0;orthogonalLoop=1;jettySize=auto;html=1;exitX=0;exitY=0.5;exitDx=0;exitDy=0;entryX=0;entryY=0.5;entryDx=0;entryDy=0;" edge="1" parent="1" source="uf_M3nVE_YILVzkpHNI8-11" target="uf_M3nVE_YILVzkpHNI8-27">
          <mxGeometry relative="1" as="geometry" />
        </mxCell>
        <mxCell id="uf_M3nVE_YILVzkpHNI8-86" value="Lưu/Đọc" style="edgeLabel;html=1;align=center;verticalAlign=middle;resizable=0;points=[];" vertex="1" connectable="0" parent="uf_M3nVE_YILVzkpHNI8-29">
          <mxGeometry x="0.4592" y="1" relative="1" as="geometry">
            <mxPoint x="12" y="1" as="offset" />
          </mxGeometry>
        </mxCell>
        <mxCell id="uf_M3nVE_YILVzkpHNI8-154" style="edgeStyle=orthogonalEdgeStyle;rounded=0;orthogonalLoop=1;jettySize=auto;html=1;exitX=0;exitY=0;exitDx=0;exitDy=0;entryX=0.75;entryY=1;entryDx=0;entryDy=0;" edge="1" parent="1" source="uf_M3nVE_YILVzkpHNI8-11" target="zHXpxbQKyH1bunrXx9_Y-2">
          <mxGeometry relative="1" as="geometry">
            <Array as="points">
              <mxPoint x="349" y="440" />
              <mxPoint x="243" y="440" />
              <mxPoint x="243" y="260" />
            </Array>
          </mxGeometry>
        </mxCell>
        <mxCell id="uf_M3nVE_YILVzkpHNI8-156" value="&lt;span style=&quot;color: rgba(0, 0, 0, 0); font-family: monospace; font-size: 0px; text-align: start; background-color: rgb(251, 251, 251);&quot;&gt;%3CmxGraphModel%3E%3Croot%3E%3CmxCell%20id%3D%220%22%2F%3E%3CmxCell%20id%3D%221%22%20parent%3D%220%22%2F%3E%3CmxCell%20id%3D%222%22%20value%3D%22%26%2310%3B%26lt%3Bspan%20style%3D%26quot%3Bcolor%3A%20rgb(0%2C%200%2C%200)%3B%20font-family%3A%20Helvetica%3B%20font-size%3A%2012px%3B%20font-style%3A%20normal%3B%20font-variant-ligatures%3A%20normal%3B%20font-variant-caps%3A%20normal%3B%20font-weight%3A%20400%3B%20letter-spacing%3A%20normal%3B%20orphans%3A%202%3B%20text-align%3A%20left%3B%20text-indent%3A%200px%3B%20text-transform%3A%20none%3B%20widows%3A%202%3B%20word-spacing%3A%200px%3B%20-webkit-text-stroke-width%3A%200px%3B%20white-space%3A%20normal%3B%20background-color%3A%20rgb(251%2C%20251%2C%20251)%3B%20text-decoration-thickness%3A%20initial%3B%20text-decoration-style%3A%20initial%3B%20text-decoration-color%3A%20initial%3B%20display%3A%20inline%20!important%3B%20float%3A%20none%3B%26quot%3B%26gt%3BY%C3%AAu%20c%E1%BA%A7u%20qu%E1%BA%A3n%20l%C3%BD%20xe%26lt%3B%2Fspan%26gt%3B%26%2310%3B%26%2310%3B%22%20style%3D%22edgeLabel%3Bhtml%3D1%3Balign%3Dcenter%3BverticalAlign%3Dmiddle%3Bresizable%3D0%3Bpoints%3D%5B%5D%3B%22%20vertex%3D%221%22%20connectable%3D%220%22%20parent%3D%221%22%3E%3CmxGeometry%20x%3D%22270%22%20y%3D%22300.0042857142858%22%20as%3D%22geometry%22%2F%3E%3C%2FmxCell%3E%3C%2Froot%3E%3C%2FmxGraphModel%3E&lt;/span&gt;" style="edgeLabel;html=1;align=center;verticalAlign=middle;resizable=0;points=[];" vertex="1" connectable="0" parent="uf_M3nVE_YILVzkpHNI8-154">
          <mxGeometry x="0.5608" y="-1" relative="1" as="geometry">
            <mxPoint as="offset" />
          </mxGeometry>
        </mxCell>
        <mxCell id="uf_M3nVE_YILVzkpHNI8-157" value="&lt;span style=&quot;color: rgba(0, 0, 0, 0); font-family: monospace; font-size: 0px; text-align: start; background-color: rgb(251, 251, 251);&quot;&gt;%3CmxGraphModel%3E%3Croot%3E%3CmxCell%20id%3D%220%22%2F%3E%3CmxCell%20id%3D%221%22%20parent%3D%220%22%2F%3E%3CmxCell%20id%3D%222%22%20value%3D%22%26%2310%3B%26lt%3Bspan%20style%3D%26quot%3Bcolor%3A%20rgb(0%2C%200%2C%200)%3B%20font-family%3A%20Helvetica%3B%20font-size%3A%2012px%3B%20font-style%3A%20normal%3B%20font-variant-ligatures%3A%20normal%3B%20font-variant-caps%3A%20normal%3B%20font-weight%3A%20400%3B%20letter-spacing%3A%20normal%3B%20orphans%3A%202%3B%20text-align%3A%20left%3B%20text-indent%3A%200px%3B%20text-transform%3A%20none%3B%20widows%3A%202%3B%20word-spacing%3A%200px%3B%20-webkit-text-stroke-width%3A%200px%3B%20white-space%3A%20normal%3B%20background-color%3A%20rgb(251%2C%20251%2C%20251)%3B%20text-decoration-thickness%3A%20initial%3B%20text-decoration-style%3A%20initial%3B%20text-decoration-color%3A%20initial%3B%20display%3A%20inline%20!important%3B%20float%3A%20none%3B%26quot%3B%26gt%3BY%C3%AAu%20c%E1%BA%A7u%20qu%E1%BA%A3n%20l%C3%BD%20xe%26lt%3B%2Fspan%26gt%3B%26%2310%3B%26%2310%3B%22%20style%3D%22edgeLabel%3Bhtml%3D1%3Balign%3Dcenter%3BverticalAlign%3Dmiddle%3Bresizable%3D0%3Bpoints%3D%5B%5D%3B%22%20vertex%3D%221%22%20connectable%3D%220%22%20parent%3D%221%22%3E%3CmxGeometry%20x%3D%22200%22%20y%3D%22279.7142857142858%22%20as%3D%22geometry%22%2F%3E%3C%2FmxCell%3E%3C%2Froot%3E%3C%2FmxGraphModel%3E&lt;/span&gt;" style="edgeLabel;html=1;align=center;verticalAlign=middle;resizable=0;points=[];" vertex="1" connectable="0" parent="uf_M3nVE_YILVzkpHNI8-154">
          <mxGeometry x="0.5302" relative="1" as="geometry">
            <mxPoint as="offset" />
          </mxGeometry>
        </mxCell>
        <mxCell id="uf_M3nVE_YILVzkpHNI8-158" value="&lt;span style=&quot;color: rgba(0, 0, 0, 0); font-family: monospace; font-size: 0px; text-align: start; background-color: rgb(251, 251, 251);&quot;&gt;%3CmxGraphModel%3E%3Croot%3E%3CmxCell%20id%3D%220%22%2F%3E%3CmxCell%20id%3D%221%22%20parent%3D%220%22%2F%3E%3CmxCell%20id%3D%222%22%20value%3D%22%26%2310%3B%26lt%3Bspan%20style%3D%26quot%3Bcolor%3A%20rgb(0%2C%200%2C%200)%3B%20font-family%3A%20Helvetica%3B%20font-size%3A%2012px%3B%20font-style%3A%20normal%3B%20font-variant-ligatures%3A%20normal%3B%20font-variant-caps%3A%20normal%3B%20font-weight%3A%20400%3B%20letter-spacing%3A%20normal%3B%20orphans%3A%202%3B%20text-align%3A%20left%3B%20text-indent%3A%200px%3B%20text-transform%3A%20none%3B%20widows%3A%202%3B%20word-spacing%3A%200px%3B%20-webkit-text-stroke-width%3A%200px%3B%20white-space%3A%20normal%3B%20background-color%3A%20rgb(251%2C%20251%2C%20251)%3B%20text-decoration-thickness%3A%20initial%3B%20text-decoration-style%3A%20initial%3B%20text-decoration-color%3A%20initial%3B%20display%3A%20inline%20!important%3B%20float%3A%20none%3B%26quot%3B%26gt%3BY%C3%AAu%20c%E1%BA%A7u%20qu%E1%BA%A3n%20l%C3%BD%20xe%26lt%3B%2Fspan%26gt%3B%26%2310%3B%26%2310%3B%22%20style%3D%22edgeLabel%3Bhtml%3D1%3Balign%3Dcenter%3BverticalAlign%3Dmiddle%3Bresizable%3D0%3Bpoints%3D%5B%5D%3B%22%20vertex%3D%221%22%20connectable%3D%220%22%20parent%3D%221%22%3E%3CmxGeometry%20x%3D%22200%22%20y%3D%22279.7142857142858%22%20as%3D%22geometry%22%2F%3E%3C%2FmxCell%3E%3C%2Froot%3E%3C%2FmxGraphModel%3E&lt;/span&gt;" style="edgeLabel;html=1;align=center;verticalAlign=middle;resizable=0;points=[];" vertex="1" connectable="0" parent="uf_M3nVE_YILVzkpHNI8-154">
          <mxGeometry x="0.4651" relative="1" as="geometry">
            <mxPoint as="offset" />
          </mxGeometry>
        </mxCell>
        <mxCell id="uf_M3nVE_YILVzkpHNI8-159" value="&lt;span style=&quot;color: rgba(0, 0, 0, 0); font-family: monospace; font-size: 0px; text-align: start; background-color: rgb(251, 251, 251);&quot;&gt;%3CmxGraphModel%3E%3Croot%3E%3CmxCell%20id%3D%220%22%2F%3E%3CmxCell%20id%3D%221%22%20parent%3D%220%22%2F%3E%3CmxCell%20id%3D%222%22%20value%3D%22%26%2310%3B%26lt%3Bspan%20style%3D%26quot%3Bcolor%3A%20rgb(0%2C%200%2C%200)%3B%20font-family%3A%20Helvetica%3B%20font-size%3A%2012px%3B%20font-style%3A%20normal%3B%20font-variant-ligatures%3A%20normal%3B%20font-variant-caps%3A%20normal%3B%20font-weight%3A%20400%3B%20letter-spacing%3A%20normal%3B%20orphans%3A%202%3B%20text-align%3A%20left%3B%20text-indent%3A%200px%3B%20text-transform%3A%20none%3B%20widows%3A%202%3B%20word-spacing%3A%200px%3B%20-webkit-text-stroke-width%3A%200px%3B%20white-space%3A%20normal%3B%20background-color%3A%20rgb(251%2C%20251%2C%20251)%3B%20text-decoration-thickness%3A%20initial%3B%20text-decoration-style%3A%20initial%3B%20text-decoration-color%3A%20initial%3B%20display%3A%20inline%20!important%3B%20float%3A%20none%3B%26quot%3B%26gt%3BY%C3%AAu%20c%E1%BA%A7u%20qu%E1%BA%A3n%20l%C3%BD%20xe%26lt%3B%2Fspan%26gt%3B%26%2310%3B%26%2310%3B%22%20style%3D%22edgeLabel%3Bhtml%3D1%3Balign%3Dcenter%3BverticalAlign%3Dmiddle%3Bresizable%3D0%3Bpoints%3D%5B%5D%3B%22%20vertex%3D%221%22%20connectable%3D%220%22%20parent%3D%221%22%3E%3CmxGeometry%20x%3D%22200%22%20y%3D%22279.7142857142858%22%20as%3D%22geometry%22%2F%3E%3C%2FmxCell%3E%3C%2Froot%3E%3C%2FmxGraphModel%3E&lt;/span&gt;" style="edgeLabel;html=1;align=center;verticalAlign=middle;resizable=0;points=[];" vertex="1" connectable="0" parent="uf_M3nVE_YILVzkpHNI8-154">
          <mxGeometry x="0.3924" y="-3" relative="1" as="geometry">
            <mxPoint as="offset" />
          </mxGeometry>
        </mxCell>
        <mxCell id="uf_M3nVE_YILVzkpHNI8-162" value="&#xa;&lt;span style=&quot;color: rgb(0, 0, 0); font-family: Helvetica; font-size: 12px; font-style: normal; font-variant-ligatures: normal; font-variant-caps: normal; font-weight: 400; letter-spacing: normal; orphans: 2; text-align: left; text-indent: 0px; text-transform: none; widows: 2; word-spacing: 0px; -webkit-text-stroke-width: 0px; white-space: normal; background-color: rgb(251, 251, 251); text-decoration-thickness: initial; text-decoration-style: initial; text-decoration-color: initial; display: inline !important; float: none;&quot;&gt;Báo cáo xe&lt;/span&gt;&#xa;&#xa;" style="edgeLabel;html=1;align=center;verticalAlign=middle;resizable=0;points=[];" vertex="1" connectable="0" parent="uf_M3nVE_YILVzkpHNI8-154">
          <mxGeometry x="0.2509" y="-1" relative="1" as="geometry">
            <mxPoint x="6" as="offset" />
          </mxGeometry>
        </mxCell>
        <mxCell id="uf_M3nVE_YILVzkpHNI8-11" value="(2) Quản lý&amp;nbsp;&lt;span style=&quot;background-color: transparent; color: light-dark(rgb(0, 0, 0), rgb(255, 255, 255));&quot;&gt;xe &amp;amp; loại xe&lt;/span&gt;" style="ellipse;whiteSpace=wrap;html=1;" vertex="1" parent="1">
          <mxGeometry x="330.04999999999995" y="450" width="130" height="50" as="geometry" />
        </mxCell>
        <mxCell id="uf_M3nVE_YILVzkpHNI8-36" style="edgeStyle=orthogonalEdgeStyle;rounded=0;orthogonalLoop=1;jettySize=auto;html=1;exitX=0;exitY=0.5;exitDx=0;exitDy=0;entryX=0;entryY=0.5;entryDx=0;entryDy=0;" edge="1" parent="1" source="uf_M3nVE_YILVzkpHNI8-12" target="uf_M3nVE_YILVzkpHNI8-34">
          <mxGeometry relative="1" as="geometry" />
        </mxCell>
        <mxCell id="uf_M3nVE_YILVzkpHNI8-66" value="&lt;div&gt;Lưu/Đọc&lt;/div&gt;" style="edgeLabel;html=1;align=center;verticalAlign=middle;resizable=0;points=[];" vertex="1" connectable="0" parent="uf_M3nVE_YILVzkpHNI8-36">
          <mxGeometry x="0.4426" y="-4" relative="1" as="geometry">
            <mxPoint x="9" y="-4" as="offset" />
          </mxGeometry>
        </mxCell>
        <mxCell id="uf_M3nVE_YILVzkpHNI8-65" style="edgeStyle=orthogonalEdgeStyle;rounded=0;orthogonalLoop=1;jettySize=auto;html=1;exitX=0;exitY=0.5;exitDx=0;exitDy=0;entryX=0;entryY=0.5;entryDx=0;entryDy=0;" edge="1" parent="1" source="uf_M3nVE_YILVzkpHNI8-12" target="uf_M3nVE_YILVzkpHNI8-64">
          <mxGeometry relative="1" as="geometry" />
        </mxCell>
        <mxCell id="uf_M3nVE_YILVzkpHNI8-68" value="&lt;div&gt;Đọc&lt;/div&gt;" style="edgeLabel;html=1;align=center;verticalAlign=middle;resizable=0;points=[];" vertex="1" connectable="0" parent="uf_M3nVE_YILVzkpHNI8-65">
          <mxGeometry x="0.5841" y="-2" relative="1" as="geometry">
            <mxPoint y="-2" as="offset" />
          </mxGeometry>
        </mxCell>
        <mxCell id="uf_M3nVE_YILVzkpHNI8-70" style="edgeStyle=orthogonalEdgeStyle;rounded=0;orthogonalLoop=1;jettySize=auto;html=1;exitX=0;exitY=0.5;exitDx=0;exitDy=0;entryX=0;entryY=0.5;entryDx=0;entryDy=0;" edge="1" parent="1" source="uf_M3nVE_YILVzkpHNI8-12" target="uf_M3nVE_YILVzkpHNI8-69">
          <mxGeometry relative="1" as="geometry" />
        </mxCell>
        <mxCell id="uf_M3nVE_YILVzkpHNI8-71" value="&lt;div&gt;Đọc&lt;/div&gt;" style="edgeLabel;html=1;align=center;verticalAlign=middle;resizable=0;points=[];" vertex="1" connectable="0" parent="uf_M3nVE_YILVzkpHNI8-70">
          <mxGeometry x="0.6093" y="-1" relative="1" as="geometry">
            <mxPoint x="5" y="-1" as="offset" />
          </mxGeometry>
        </mxCell>
        <mxCell id="uf_M3nVE_YILVzkpHNI8-74" style="edgeStyle=orthogonalEdgeStyle;rounded=0;orthogonalLoop=1;jettySize=auto;html=1;exitX=0;exitY=0.5;exitDx=0;exitDy=0;entryX=0;entryY=0.5;entryDx=0;entryDy=0;" edge="1" parent="1" source="uf_M3nVE_YILVzkpHNI8-12" target="uf_M3nVE_YILVzkpHNI8-35">
          <mxGeometry relative="1" as="geometry" />
        </mxCell>
        <mxCell id="uf_M3nVE_YILVzkpHNI8-75" value="&lt;div&gt;Đọc&lt;/div&gt;" style="edgeLabel;html=1;align=center;verticalAlign=middle;resizable=0;points=[];" vertex="1" connectable="0" parent="uf_M3nVE_YILVzkpHNI8-74">
          <mxGeometry x="0.7574" y="1" relative="1" as="geometry">
            <mxPoint x="-7" y="1" as="offset" />
          </mxGeometry>
        </mxCell>
        <mxCell id="uf_M3nVE_YILVzkpHNI8-77" style="edgeStyle=orthogonalEdgeStyle;rounded=0;orthogonalLoop=1;jettySize=auto;html=1;exitX=0;exitY=0.5;exitDx=0;exitDy=0;entryX=0;entryY=0.5;entryDx=0;entryDy=0;" edge="1" parent="1" source="uf_M3nVE_YILVzkpHNI8-12" target="uf_M3nVE_YILVzkpHNI8-76">
          <mxGeometry relative="1" as="geometry" />
        </mxCell>
        <mxCell id="uf_M3nVE_YILVzkpHNI8-80" value="&lt;span style=&quot;color: rgba(0, 0, 0, 0); font-family: monospace; font-size: 0px; text-align: start; background-color: rgb(251, 251, 251);&quot;&gt;%3CmxGraphModel%3E%3Croot%3E%3CmxCell%20id%3D%220%22%2F%3E%3CmxCell%20id%3D%221%22%20parent%3D%220%22%2F%3E%3CmxCell%20id%3D%222%22%20value%3D%22%26lt%3Bdiv%26gt%3B%C4%90%E1%BB%8Dc%26lt%3B%2Fdiv%26gt%3B%22%20style%3D%22edgeLabel%3Bhtml%3D1%3Balign%3Dcenter%3BverticalAlign%3Dmiddle%3Bresizable%3D0%3Bpoints%3D%5B%5D%3B%22%20vertex%3D%221%22%20connectable%3D%220%22%20parent%3D%221%22%3E%3CmxGeometry%20x%3D%22850.3049170894087%22%20y%3D%22615.0277783677207%22%20as%3D%22geometry%22%2F%3E%3C%2FmxCell%3E%3C%2Froot%3E%3C%2FmxGraphModel%3E&lt;/span&gt;" style="edgeLabel;html=1;align=center;verticalAlign=middle;resizable=0;points=[];" vertex="1" connectable="0" parent="uf_M3nVE_YILVzkpHNI8-77">
          <mxGeometry x="0.7719" y="-2" relative="1" as="geometry">
            <mxPoint as="offset" />
          </mxGeometry>
        </mxCell>
        <mxCell id="uf_M3nVE_YILVzkpHNI8-81" value="&lt;div&gt;Đọc&lt;/div&gt;" style="edgeLabel;html=1;align=center;verticalAlign=middle;resizable=0;points=[];" vertex="1" connectable="0" parent="uf_M3nVE_YILVzkpHNI8-77">
          <mxGeometry x="0.7887" y="2" relative="1" as="geometry">
            <mxPoint x="-7" as="offset" />
          </mxGeometry>
        </mxCell>
        <mxCell id="uf_M3nVE_YILVzkpHNI8-12" value="&lt;div&gt;4. Quản lý thẻ đỗ xe&lt;/div&gt;" style="ellipse;whiteSpace=wrap;html=1;" vertex="1" parent="1">
          <mxGeometry x="749.96" y="450" width="150" height="50" as="geometry" />
        </mxCell>
        <mxCell id="uf_M3nVE_YILVzkpHNI8-16" value="&lt;div&gt;D1: user&lt;/div&gt;" style="shape=partialRectangle;whiteSpace=wrap;html=1;left=0;right=0;fillColor=none;" vertex="1" parent="1">
          <mxGeometry x="130" y="521" width="120" height="30" as="geometry" />
        </mxCell>
        <mxCell id="uf_M3nVE_YILVzkpHNI8-17" value="&lt;div&gt;D2: role&lt;/div&gt;" style="shape=partialRectangle;whiteSpace=wrap;html=1;left=0;right=0;fillColor=none;" vertex="1" parent="1">
          <mxGeometry x="130" y="561" width="120" height="30" as="geometry" />
        </mxCell>
        <mxCell id="uf_M3nVE_YILVzkpHNI8-26" value="&lt;div&gt;D3: vehicle&lt;/div&gt;" style="shape=partialRectangle;whiteSpace=wrap;html=1;left=0;right=0;fillColor=none;" vertex="1" parent="1">
          <mxGeometry x="380.04999999999995" y="521" width="120" height="30" as="geometry" />
        </mxCell>
        <mxCell id="uf_M3nVE_YILVzkpHNI8-27" value="&lt;div&gt;D4: vehicle_type&lt;/div&gt;" style="shape=partialRectangle;whiteSpace=wrap;html=1;left=0;right=0;fillColor=none;" vertex="1" parent="1">
          <mxGeometry x="380.04999999999995" y="561" width="120" height="30" as="geometry" />
        </mxCell>
        <mxCell id="uf_M3nVE_YILVzkpHNI8-34" value="&lt;div&gt;D7: parking_card&lt;/div&gt;" style="shape=partialRectangle;whiteSpace=wrap;html=1;left=0;right=0;fillColor=none;" vertex="1" parent="1">
          <mxGeometry x="799.96" y="521" width="120" height="30" as="geometry" />
        </mxCell>
        <mxCell id="uf_M3nVE_YILVzkpHNI8-35" value="D5: parking_area" style="shape=partialRectangle;whiteSpace=wrap;html=1;left=0;right=0;fillColor=none;" vertex="1" parent="1">
          <mxGeometry x="799.96" y="640" width="120" height="30" as="geometry" />
        </mxCell>
        <mxCell id="uf_M3nVE_YILVzkpHNI8-64" value="&lt;div&gt;D1: user&lt;/div&gt;" style="shape=partialRectangle;whiteSpace=wrap;html=1;left=0;right=0;fillColor=none;" vertex="1" parent="1">
          <mxGeometry x="799.96" y="561" width="120" height="30" as="geometry" />
        </mxCell>
        <mxCell id="uf_M3nVE_YILVzkpHNI8-69" value="&lt;div&gt;D3: vehicle&lt;/div&gt;" style="shape=partialRectangle;whiteSpace=wrap;html=1;left=0;right=0;fillColor=none;" vertex="1" parent="1">
          <mxGeometry x="799.96" y="600" width="120" height="30" as="geometry" />
        </mxCell>
        <mxCell id="uf_M3nVE_YILVzkpHNI8-76" value="&lt;div&gt;D8: ticket_price&lt;/div&gt;" style="shape=partialRectangle;whiteSpace=wrap;html=1;left=0;right=0;fillColor=none;" vertex="1" parent="1">
          <mxGeometry x="799.96" y="680" width="120" height="30" as="geometry" />
        </mxCell>
        <mxCell id="uf_M3nVE_YILVzkpHNI8-102" style="edgeStyle=orthogonalEdgeStyle;rounded=0;orthogonalLoop=1;jettySize=auto;html=1;exitX=0;exitY=0.5;exitDx=0;exitDy=0;entryX=1;entryY=0.5;entryDx=0;entryDy=0;" edge="1" parent="1" source="uf_M3nVE_YILVzkpHNI8-83" target="uf_M3nVE_YILVzkpHNI8-34">
          <mxGeometry relative="1" as="geometry">
            <Array as="points">
              <mxPoint x="990" y="475" />
              <mxPoint x="990" y="536" />
            </Array>
          </mxGeometry>
        </mxCell>
        <mxCell id="uf_M3nVE_YILVzkpHNI8-110" value="&lt;div&gt;Đọc&lt;/div&gt;" style="edgeLabel;html=1;align=center;verticalAlign=middle;resizable=0;points=[];" vertex="1" connectable="0" parent="uf_M3nVE_YILVzkpHNI8-102">
          <mxGeometry x="0.5248" y="-1" relative="1" as="geometry">
            <mxPoint as="offset" />
          </mxGeometry>
        </mxCell>
        <mxCell id="uf_M3nVE_YILVzkpHNI8-103" style="edgeStyle=orthogonalEdgeStyle;rounded=0;orthogonalLoop=1;jettySize=auto;html=1;exitX=0;exitY=0.5;exitDx=0;exitDy=0;entryX=1;entryY=0.75;entryDx=0;entryDy=0;" edge="1" parent="1" source="uf_M3nVE_YILVzkpHNI8-83" target="uf_M3nVE_YILVzkpHNI8-69">
          <mxGeometry relative="1" as="geometry">
            <Array as="points">
              <mxPoint x="990" y="475" />
              <mxPoint x="990" y="623" />
            </Array>
          </mxGeometry>
        </mxCell>
        <mxCell id="uf_M3nVE_YILVzkpHNI8-112" value="&lt;div&gt;Đọc&lt;/div&gt;" style="edgeLabel;html=1;align=center;verticalAlign=middle;resizable=0;points=[];" vertex="1" connectable="0" parent="uf_M3nVE_YILVzkpHNI8-103">
          <mxGeometry x="0.6343" y="1" relative="1" as="geometry">
            <mxPoint as="offset" />
          </mxGeometry>
        </mxCell>
        <mxCell id="uf_M3nVE_YILVzkpHNI8-104" style="edgeStyle=orthogonalEdgeStyle;rounded=0;orthogonalLoop=1;jettySize=auto;html=1;exitX=0;exitY=0.5;exitDx=0;exitDy=0;entryX=1;entryY=0.5;entryDx=0;entryDy=0;" edge="1" parent="1" source="uf_M3nVE_YILVzkpHNI8-83" target="uf_M3nVE_YILVzkpHNI8-64">
          <mxGeometry relative="1" as="geometry">
            <Array as="points">
              <mxPoint x="990" y="475" />
              <mxPoint x="990" y="576" />
            </Array>
          </mxGeometry>
        </mxCell>
        <mxCell id="uf_M3nVE_YILVzkpHNI8-111" value="&lt;div&gt;Đọc&lt;/div&gt;" style="edgeLabel;html=1;align=center;verticalAlign=middle;resizable=0;points=[];" vertex="1" connectable="0" parent="uf_M3nVE_YILVzkpHNI8-104">
          <mxGeometry x="0.5989" y="-3" relative="1" as="geometry">
            <mxPoint as="offset" />
          </mxGeometry>
        </mxCell>
        <mxCell id="uf_M3nVE_YILVzkpHNI8-106" style="edgeStyle=orthogonalEdgeStyle;rounded=0;orthogonalLoop=1;jettySize=auto;html=1;exitX=0;exitY=0.5;exitDx=0;exitDy=0;entryX=1;entryY=0.5;entryDx=0;entryDy=0;" edge="1" parent="1" source="uf_M3nVE_YILVzkpHNI8-83" target="uf_M3nVE_YILVzkpHNI8-76">
          <mxGeometry relative="1" as="geometry">
            <Array as="points">
              <mxPoint x="990" y="475" />
              <mxPoint x="990" y="695" />
            </Array>
          </mxGeometry>
        </mxCell>
        <mxCell id="uf_M3nVE_YILVzkpHNI8-109" value="&lt;div&gt;Lưu/Đọc&lt;/div&gt;" style="edgeLabel;html=1;align=center;verticalAlign=middle;resizable=0;points=[];" vertex="1" connectable="0" parent="uf_M3nVE_YILVzkpHNI8-106">
          <mxGeometry x="0.7368" relative="1" as="geometry">
            <mxPoint as="offset" />
          </mxGeometry>
        </mxCell>
        <mxCell id="uf_M3nVE_YILVzkpHNI8-107" style="edgeStyle=orthogonalEdgeStyle;rounded=0;orthogonalLoop=1;jettySize=auto;html=1;exitX=0.5;exitY=1;exitDx=0;exitDy=0;entryX=0.5;entryY=0;entryDx=0;entryDy=0;" edge="1" parent="1" source="uf_M3nVE_YILVzkpHNI8-83" target="uf_M3nVE_YILVzkpHNI8-98">
          <mxGeometry relative="1" as="geometry" />
        </mxCell>
        <mxCell id="uf_M3nVE_YILVzkpHNI8-108" value="&lt;div&gt;Lưu/Đọc&lt;/div&gt;" style="edgeLabel;html=1;align=center;verticalAlign=middle;resizable=0;points=[];" vertex="1" connectable="0" parent="uf_M3nVE_YILVzkpHNI8-107">
          <mxGeometry x="-0.1304" y="-1" relative="1" as="geometry">
            <mxPoint as="offset" />
          </mxGeometry>
        </mxCell>
        <mxCell id="uf_M3nVE_YILVzkpHNI8-83" value="&lt;div&gt;5. Quản lý giá vé&amp;nbsp;&lt;/div&gt;&lt;div&gt;và thanh toán&lt;/div&gt;" style="ellipse;whiteSpace=wrap;html=1;" vertex="1" parent="1">
          <mxGeometry x="1005" y="450" width="150" height="50" as="geometry" />
        </mxCell>
        <mxCell id="uf_M3nVE_YILVzkpHNI8-85" style="edgeStyle=orthogonalEdgeStyle;rounded=0;orthogonalLoop=1;jettySize=auto;html=1;exitX=0.5;exitY=1;exitDx=0;exitDy=0;" edge="1" parent="1" source="uf_M3nVE_YILVzkpHNI8-26" target="uf_M3nVE_YILVzkpHNI8-26">
          <mxGeometry relative="1" as="geometry" />
        </mxCell>
        <mxCell id="uf_M3nVE_YILVzkpHNI8-88" style="edgeStyle=orthogonalEdgeStyle;rounded=0;orthogonalLoop=1;jettySize=auto;html=1;exitX=0;exitY=0.5;exitDx=0;exitDy=0;entryX=0;entryY=0.5;entryDx=0;entryDy=0;" edge="1" parent="1" source="uf_M3nVE_YILVzkpHNI8-91" target="uf_M3nVE_YILVzkpHNI8-92">
          <mxGeometry relative="1" as="geometry" />
        </mxCell>
        <mxCell id="uf_M3nVE_YILVzkpHNI8-89" style="edgeStyle=orthogonalEdgeStyle;rounded=0;orthogonalLoop=1;jettySize=auto;html=1;exitX=0;exitY=0.5;exitDx=0;exitDy=0;entryX=0;entryY=0.5;entryDx=0;entryDy=0;" edge="1" parent="1" source="uf_M3nVE_YILVzkpHNI8-91" target="uf_M3nVE_YILVzkpHNI8-93">
          <mxGeometry relative="1" as="geometry" />
        </mxCell>
        <mxCell id="uf_M3nVE_YILVzkpHNI8-90" value="Lưu/Đọc" style="edgeLabel;html=1;align=center;verticalAlign=middle;resizable=0;points=[];" vertex="1" connectable="0" parent="uf_M3nVE_YILVzkpHNI8-89">
          <mxGeometry x="-0.4667" y="1" relative="1" as="geometry">
            <mxPoint x="24" y="31" as="offset" />
          </mxGeometry>
        </mxCell>
        <mxCell id="uf_M3nVE_YILVzkpHNI8-167" style="edgeStyle=orthogonalEdgeStyle;rounded=0;orthogonalLoop=1;jettySize=auto;html=1;exitX=0.5;exitY=0;exitDx=0;exitDy=0;entryX=1;entryY=0.5;entryDx=0;entryDy=0;" edge="1" parent="1" source="uf_M3nVE_YILVzkpHNI8-91" target="zHXpxbQKyH1bunrXx9_Y-2">
          <mxGeometry relative="1" as="geometry">
            <Array as="points">
              <mxPoint x="605" y="440" />
              <mxPoint x="290" y="440" />
              <mxPoint x="290" y="210" />
            </Array>
          </mxGeometry>
        </mxCell>
        <mxCell id="uf_M3nVE_YILVzkpHNI8-168" value="&#xa;&lt;span style=&quot;color: rgb(0, 0, 0); font-family: Helvetica; font-size: 12px; font-style: normal; font-variant-ligatures: normal; font-variant-caps: normal; font-weight: 400; letter-spacing: normal; orphans: 2; text-align: left; text-indent: 0px; text-transform: none; widows: 2; word-spacing: 0px; -webkit-text-stroke-width: 0px; white-space: normal; background-color: rgb(251, 251, 251); text-decoration-thickness: initial; text-decoration-style: initial; text-decoration-color: initial; display: inline !important; float: none;&quot;&gt;Báo cáo khu vực&lt;/span&gt;&#xa;&#xa;" style="edgeLabel;html=1;align=center;verticalAlign=middle;resizable=0;points=[];" vertex="1" connectable="0" parent="uf_M3nVE_YILVzkpHNI8-167">
          <mxGeometry x="0.696" y="-1" relative="1" as="geometry">
            <mxPoint x="-1" y="67" as="offset" />
          </mxGeometry>
        </mxCell>
        <mxCell id="uf_M3nVE_YILVzkpHNI8-91" value="(3) Quản lý&amp;nbsp;khu vực &amp;amp; vị trí đỗ xe" style="ellipse;whiteSpace=wrap;html=1;" vertex="1" parent="1">
          <mxGeometry x="549.9100000000001" y="451" width="110.04" height="50" as="geometry" />
        </mxCell>
        <mxCell id="uf_M3nVE_YILVzkpHNI8-92" value="&lt;span style=&quot;color: rgba(0, 0, 0, 0); font-family: monospace; font-size: 0px; text-align: start; text-wrap-mode: nowrap;&quot;&gt;%3CmxGraphModel%3E%3Croot%3E%3CmxCell%20id%3D%220%22%2F%3E%3CmxCell%20id%3D%221%22%20parent%3D%220%22%2F%3E%3CmxCell%20id%3D%222%22%20value%3D%22%26lt%3Bdiv%26gt%3BD1%3A%20user%26lt%3B%2Fdiv%26gt%3B%22%20style%3D%22shape%3DpartialRectangle%3BwhiteSpace%3Dwrap%3Bhtml%3D1%3Bleft%3D0%3Bright%3D0%3BfillColor%3Dnone%3B%22%20vertex%3D%221%22%20parent%3D%221%22%3E%3CmxGeometry%20x%3D%22340%22%20y%3D%22521%22%20width%3D%22120%22%20height%3D%2230%22%20as%3D%22geometry%22%2F%3E%3C%2FmxCell%3E%3CmxCell%20id%3D%223%22%20value%3D%22%26lt%3Bdiv%26gt%3BD2%3A%20role%26lt%3B%2Fdiv%26gt%3B%22%20style%3D%22shape%3DpartialRectangle%3BwhiteSpace%3Dwrap%3Bhtml%3D1%3Bleft%3D0%3Bright%3D0%3BfillColor%3Dnone%3B%22%20vertex%3D%221%22%20parent%3D%221%22%3E%3CmxGeometry%20x%3D%22340%22%20y%3D%22561%22%20width%3D%22120%22%20height%3D%2230%22%20as%3D%22geometry%22%2F%3E%3C%2FmxCell%3E%3C%2Froot%3E%3C%2FmxGraphModel%3E&lt;/span&gt;&lt;span style=&quot;background-color: transparent; color: light-dark(rgb(0, 0, 0), rgb(255, 255, 255));&quot;&gt;D5: parking_area&lt;/span&gt;" style="shape=partialRectangle;whiteSpace=wrap;html=1;left=0;right=0;fillColor=none;" vertex="1" parent="1">
          <mxGeometry x="589.9100000000001" y="521" width="120" height="30" as="geometry" />
        </mxCell>
        <mxCell id="uf_M3nVE_YILVzkpHNI8-93" value="&lt;div&gt;D6: parking_slot&lt;/div&gt;" style="shape=partialRectangle;whiteSpace=wrap;html=1;left=0;right=0;fillColor=none;" vertex="1" parent="1">
          <mxGeometry x="589.9100000000001" y="561" width="120" height="30" as="geometry" />
        </mxCell>
        <mxCell id="uf_M3nVE_YILVzkpHNI8-95" value="Lưu/Đọc" style="edgeLabel;html=1;align=center;verticalAlign=middle;resizable=0;points=[];" vertex="1" connectable="0" parent="1">
          <mxGeometry x="549.9073684210528" y="575.9984210526293" as="geometry">
            <mxPoint x="6" y="-1" as="offset" />
          </mxGeometry>
        </mxCell>
        <mxCell id="uf_M3nVE_YILVzkpHNI8-98" value="&lt;div&gt;D9: payment_receipt&lt;/div&gt;" style="shape=partialRectangle;whiteSpace=wrap;html=1;left=0;right=0;fillColor=none;" vertex="1" parent="1">
          <mxGeometry x="1005" y="546" width="120" height="30" as="geometry" />
        </mxCell>
      </root>
    </mxGraphModel>
  </diagram>
  <diagram id="WtbBr8Q-UOfW8nz02FKK" name="use-case">
    <mxGraphModel dx="592" dy="310" grid="1" gridSize="10" guides="1" tooltips="1" connect="1" arrows="1" fold="1" page="1" pageScale="1" pageWidth="1169" pageHeight="827" math="0" shadow="0">
      <root>
        <mxCell id="0" />
        <mxCell id="1" parent="0" />
        <mxCell id="CD5J2mfkDJYRw3WoCT5E-1" value="Nhân viên&lt;div&gt;(Staff)&lt;/div&gt;" style="shape=umlActor;verticalLabelPosition=bottom;verticalAlign=top;html=1;outlineConnect=0;" vertex="1" parent="1">
          <mxGeometry x="970" y="160" width="30" height="60" as="geometry" />
        </mxCell>
        <mxCell id="CD5J2mfkDJYRw3WoCT5E-24" style="rounded=0;orthogonalLoop=1;jettySize=auto;html=1;exitX=1;exitY=0.3333333333333333;exitDx=0;exitDy=0;exitPerimeter=0;entryX=0;entryY=0.5;entryDx=0;entryDy=0;" edge="1" parent="1" source="CD5J2mfkDJYRw3WoCT5E-2" target="CD5J2mfkDJYRw3WoCT5E-8">
          <mxGeometry relative="1" as="geometry" />
        </mxCell>
        <mxCell id="CD5J2mfkDJYRw3WoCT5E-25" style="rounded=0;orthogonalLoop=1;jettySize=auto;html=1;exitX=1;exitY=0.3333333333333333;exitDx=0;exitDy=0;exitPerimeter=0;entryX=0;entryY=0.5;entryDx=0;entryDy=0;" edge="1" parent="1" source="CD5J2mfkDJYRw3WoCT5E-2" target="CD5J2mfkDJYRw3WoCT5E-9">
          <mxGeometry relative="1" as="geometry" />
        </mxCell>
        <mxCell id="CD5J2mfkDJYRw3WoCT5E-2" value="Quản lý&lt;div&gt;(Admin)&lt;/div&gt;" style="shape=umlActor;verticalLabelPosition=bottom;verticalAlign=top;html=1;outlineConnect=0;" vertex="1" parent="1">
          <mxGeometry x="130" y="276" width="30" height="60" as="geometry" />
        </mxCell>
        <mxCell id="CD5J2mfkDJYRw3WoCT5E-59" value="" style="rounded=0;orthogonalLoop=1;jettySize=auto;html=1;exitX=0;exitY=0.3333333333333333;exitDx=0;exitDy=0;exitPerimeter=0;" edge="1" parent="1" source="CD5J2mfkDJYRw3WoCT5E-3" target="CD5J2mfkDJYRw3WoCT5E-41">
          <mxGeometry relative="1" as="geometry" />
        </mxCell>
        <mxCell id="CD5J2mfkDJYRw3WoCT5E-3" value="Khách hàng" style="shape=umlActor;verticalLabelPosition=bottom;verticalAlign=top;html=1;outlineConnect=0;" vertex="1" parent="1">
          <mxGeometry x="920" y="400" width="30" height="60" as="geometry" />
        </mxCell>
        <mxCell id="CD5J2mfkDJYRw3WoCT5E-8" value="&lt;div&gt;Thêm người dùng&lt;/div&gt;" style="ellipse;whiteSpace=wrap;html=1;" vertex="1" parent="1">
          <mxGeometry x="375" y="60" width="120" height="40" as="geometry" />
        </mxCell>
        <mxCell id="CD5J2mfkDJYRw3WoCT5E-9" value="&lt;div&gt;Xem thông tin người dùng&lt;/div&gt;" style="ellipse;whiteSpace=wrap;html=1;" vertex="1" parent="1">
          <mxGeometry x="345" y="110" width="175" height="40" as="geometry" />
        </mxCell>
        <mxCell id="CD5J2mfkDJYRw3WoCT5E-10" value="&lt;div&gt;Quản lý vai trò&lt;/div&gt;" style="ellipse;whiteSpace=wrap;html=1;" vertex="1" parent="1">
          <mxGeometry x="375" y="160" width="120" height="40" as="geometry" />
        </mxCell>
        <mxCell id="CD5J2mfkDJYRw3WoCT5E-11" value="&lt;div&gt;Thêm xe&lt;/div&gt;" style="ellipse;whiteSpace=wrap;html=1;" vertex="1" parent="1">
          <mxGeometry x="375" y="210" width="120" height="40" as="geometry" />
        </mxCell>
        <mxCell id="CD5J2mfkDJYRw3WoCT5E-12" value="&lt;div&gt;Chỉnh sửa xe&lt;/div&gt;" style="ellipse;whiteSpace=wrap;html=1;" vertex="1" parent="1">
          <mxGeometry x="375" y="263.5" width="120" height="40" as="geometry" />
        </mxCell>
        <mxCell id="CD5J2mfkDJYRw3WoCT5E-13" value="&lt;div&gt;Xem thông tin xe&lt;/div&gt;" style="ellipse;whiteSpace=wrap;html=1;" vertex="1" parent="1">
          <mxGeometry x="375" y="310" width="120" height="40" as="geometry" />
        </mxCell>
        <mxCell id="CD5J2mfkDJYRw3WoCT5E-14" value="&lt;div&gt;Quản lý loại xe&lt;/div&gt;" style="ellipse;whiteSpace=wrap;html=1;" vertex="1" parent="1">
          <mxGeometry x="375" y="360" width="120" height="40" as="geometry" />
        </mxCell>
        <mxCell id="CD5J2mfkDJYRw3WoCT5E-15" value="&lt;div&gt;Quản lý khu vực&lt;/div&gt;" style="ellipse;whiteSpace=wrap;html=1;" vertex="1" parent="1">
          <mxGeometry x="375" y="410" width="125" height="40" as="geometry" />
        </mxCell>
        <mxCell id="CD5J2mfkDJYRw3WoCT5E-16" value="&lt;div&gt;Quản lý vị trí đỗ xe&lt;/div&gt;" style="ellipse;whiteSpace=wrap;html=1;" vertex="1" parent="1">
          <mxGeometry x="375" y="460" width="120" height="40" as="geometry" />
        </mxCell>
        <mxCell id="CD5J2mfkDJYRw3WoCT5E-46" style="rounded=0;orthogonalLoop=1;jettySize=auto;html=1;exitX=1;exitY=0.5;exitDx=0;exitDy=0;entryX=0;entryY=0.5;entryDx=0;entryDy=0;dashed=1;" edge="1" parent="1" source="CD5J2mfkDJYRw3WoCT5E-17" target="CD5J2mfkDJYRw3WoCT5E-41">
          <mxGeometry relative="1" as="geometry" />
        </mxCell>
        <mxCell id="CD5J2mfkDJYRw3WoCT5E-47" value="&lt;div&gt;include&lt;/div&gt;" style="edgeLabel;html=1;align=center;verticalAlign=middle;resizable=0;points=[];" vertex="1" connectable="0" parent="CD5J2mfkDJYRw3WoCT5E-46">
          <mxGeometry x="-0.0576" y="2" relative="1" as="geometry">
            <mxPoint as="offset" />
          </mxGeometry>
        </mxCell>
        <mxCell id="CD5J2mfkDJYRw3WoCT5E-17" value="&lt;div&gt;Tạo thẻ đỗ xe&lt;/div&gt;" style="ellipse;whiteSpace=wrap;html=1;" vertex="1" parent="1">
          <mxGeometry x="375" y="506.5" width="120" height="40" as="geometry" />
        </mxCell>
        <mxCell id="CD5J2mfkDJYRw3WoCT5E-18" value="&lt;div&gt;Xem thông tin thẻ&lt;/div&gt;" style="ellipse;whiteSpace=wrap;html=1;" vertex="1" parent="1">
          <mxGeometry x="375" y="556.5" width="120" height="40" as="geometry" />
        </mxCell>
        <mxCell id="CD5J2mfkDJYRw3WoCT5E-19" value="&lt;div&gt;Quản lý giá vé&lt;/div&gt;" style="ellipse;whiteSpace=wrap;html=1;" vertex="1" parent="1">
          <mxGeometry x="375" y="606.5" width="125" height="40" as="geometry" />
        </mxCell>
        <mxCell id="CD5J2mfkDJYRw3WoCT5E-20" value="&lt;div&gt;Xem biên lai thanh toán&lt;/div&gt;" style="ellipse;whiteSpace=wrap;html=1;" vertex="1" parent="1">
          <mxGeometry x="361.25" y="657" width="147.5" height="40" as="geometry" />
        </mxCell>
        <mxCell id="CD5J2mfkDJYRw3WoCT5E-26" style="rounded=0;orthogonalLoop=1;jettySize=auto;html=1;entryX=0;entryY=0.5;entryDx=0;entryDy=0;exitX=1;exitY=0.3333333333333333;exitDx=0;exitDy=0;exitPerimeter=0;" edge="1" parent="1" source="CD5J2mfkDJYRw3WoCT5E-2" target="CD5J2mfkDJYRw3WoCT5E-10">
          <mxGeometry relative="1" as="geometry">
            <mxPoint x="170" y="306" as="sourcePoint" />
            <mxPoint x="355" y="140" as="targetPoint" />
          </mxGeometry>
        </mxCell>
        <mxCell id="CD5J2mfkDJYRw3WoCT5E-27" style="rounded=0;orthogonalLoop=1;jettySize=auto;html=1;entryX=0;entryY=0.5;entryDx=0;entryDy=0;exitX=1;exitY=0.3333333333333333;exitDx=0;exitDy=0;exitPerimeter=0;" edge="1" parent="1" source="CD5J2mfkDJYRw3WoCT5E-2" target="CD5J2mfkDJYRw3WoCT5E-11">
          <mxGeometry relative="1" as="geometry">
            <mxPoint x="170" y="296" as="sourcePoint" />
            <mxPoint x="365" y="150" as="targetPoint" />
          </mxGeometry>
        </mxCell>
        <mxCell id="CD5J2mfkDJYRw3WoCT5E-28" style="rounded=0;orthogonalLoop=1;jettySize=auto;html=1;exitX=1;exitY=0.3333333333333333;exitDx=0;exitDy=0;exitPerimeter=0;entryX=0;entryY=0.5;entryDx=0;entryDy=0;" edge="1" parent="1" source="CD5J2mfkDJYRw3WoCT5E-2" target="CD5J2mfkDJYRw3WoCT5E-12">
          <mxGeometry relative="1" as="geometry">
            <mxPoint x="190" y="326" as="sourcePoint" />
            <mxPoint x="375" y="160" as="targetPoint" />
          </mxGeometry>
        </mxCell>
        <mxCell id="CD5J2mfkDJYRw3WoCT5E-29" style="rounded=0;orthogonalLoop=1;jettySize=auto;html=1;exitX=1;exitY=0.3333333333333333;exitDx=0;exitDy=0;exitPerimeter=0;entryX=0;entryY=0.5;entryDx=0;entryDy=0;" edge="1" parent="1" source="CD5J2mfkDJYRw3WoCT5E-2" target="CD5J2mfkDJYRw3WoCT5E-13">
          <mxGeometry relative="1" as="geometry">
            <mxPoint x="200" y="336" as="sourcePoint" />
            <mxPoint x="385" y="170" as="targetPoint" />
          </mxGeometry>
        </mxCell>
        <mxCell id="CD5J2mfkDJYRw3WoCT5E-30" style="rounded=0;orthogonalLoop=1;jettySize=auto;html=1;exitX=1;exitY=0.3333333333333333;exitDx=0;exitDy=0;exitPerimeter=0;entryX=0;entryY=0.5;entryDx=0;entryDy=0;" edge="1" parent="1" source="CD5J2mfkDJYRw3WoCT5E-2" target="CD5J2mfkDJYRw3WoCT5E-14">
          <mxGeometry relative="1" as="geometry">
            <mxPoint x="210" y="346" as="sourcePoint" />
            <mxPoint x="395" y="180" as="targetPoint" />
          </mxGeometry>
        </mxCell>
        <mxCell id="CD5J2mfkDJYRw3WoCT5E-31" style="rounded=0;orthogonalLoop=1;jettySize=auto;html=1;exitX=1;exitY=0.3333333333333333;exitDx=0;exitDy=0;exitPerimeter=0;entryX=0;entryY=0.5;entryDx=0;entryDy=0;" edge="1" parent="1" source="CD5J2mfkDJYRw3WoCT5E-2" target="CD5J2mfkDJYRw3WoCT5E-15">
          <mxGeometry relative="1" as="geometry">
            <mxPoint x="220" y="356" as="sourcePoint" />
            <mxPoint x="405" y="190" as="targetPoint" />
          </mxGeometry>
        </mxCell>
        <mxCell id="CD5J2mfkDJYRw3WoCT5E-32" style="rounded=0;orthogonalLoop=1;jettySize=auto;html=1;exitX=1;exitY=0.3333333333333333;exitDx=0;exitDy=0;exitPerimeter=0;entryX=0;entryY=0.5;entryDx=0;entryDy=0;" edge="1" parent="1" source="CD5J2mfkDJYRw3WoCT5E-2" target="CD5J2mfkDJYRw3WoCT5E-16">
          <mxGeometry relative="1" as="geometry">
            <mxPoint x="230" y="366" as="sourcePoint" />
            <mxPoint x="415" y="200" as="targetPoint" />
          </mxGeometry>
        </mxCell>
        <mxCell id="CD5J2mfkDJYRw3WoCT5E-33" style="rounded=0;orthogonalLoop=1;jettySize=auto;html=1;exitX=1;exitY=0.3333333333333333;exitDx=0;exitDy=0;exitPerimeter=0;entryX=0;entryY=0.5;entryDx=0;entryDy=0;" edge="1" parent="1" source="CD5J2mfkDJYRw3WoCT5E-2" target="CD5J2mfkDJYRw3WoCT5E-17">
          <mxGeometry relative="1" as="geometry">
            <mxPoint x="240" y="376" as="sourcePoint" />
            <mxPoint x="425" y="210" as="targetPoint" />
          </mxGeometry>
        </mxCell>
        <mxCell id="CD5J2mfkDJYRw3WoCT5E-34" style="rounded=0;orthogonalLoop=1;jettySize=auto;html=1;exitX=1;exitY=0.3333333333333333;exitDx=0;exitDy=0;exitPerimeter=0;entryX=0;entryY=0.5;entryDx=0;entryDy=0;" edge="1" parent="1" source="CD5J2mfkDJYRw3WoCT5E-2" target="CD5J2mfkDJYRw3WoCT5E-18">
          <mxGeometry relative="1" as="geometry">
            <mxPoint x="250" y="386" as="sourcePoint" />
            <mxPoint x="435" y="220" as="targetPoint" />
          </mxGeometry>
        </mxCell>
        <mxCell id="CD5J2mfkDJYRw3WoCT5E-35" style="rounded=0;orthogonalLoop=1;jettySize=auto;html=1;exitX=1;exitY=0.3333333333333333;exitDx=0;exitDy=0;exitPerimeter=0;entryX=0;entryY=0.5;entryDx=0;entryDy=0;" edge="1" parent="1" source="CD5J2mfkDJYRw3WoCT5E-2" target="CD5J2mfkDJYRw3WoCT5E-19">
          <mxGeometry relative="1" as="geometry">
            <mxPoint x="260" y="396" as="sourcePoint" />
            <mxPoint x="445" y="230" as="targetPoint" />
          </mxGeometry>
        </mxCell>
        <mxCell id="CD5J2mfkDJYRw3WoCT5E-36" style="rounded=0;orthogonalLoop=1;jettySize=auto;html=1;exitX=1;exitY=0.3333333333333333;exitDx=0;exitDy=0;exitPerimeter=0;entryX=0;entryY=0.5;entryDx=0;entryDy=0;" edge="1" parent="1" source="CD5J2mfkDJYRw3WoCT5E-2" target="CD5J2mfkDJYRw3WoCT5E-20">
          <mxGeometry relative="1" as="geometry">
            <mxPoint x="270" y="406" as="sourcePoint" />
            <mxPoint x="455" y="240" as="targetPoint" />
          </mxGeometry>
        </mxCell>
        <mxCell id="CD5J2mfkDJYRw3WoCT5E-41" value="&lt;div&gt;Cung cấp thông tin xe&lt;/div&gt;" style="ellipse;whiteSpace=wrap;html=1;" vertex="1" parent="1">
          <mxGeometry x="625" y="426" width="120" height="40" as="geometry" />
        </mxCell>
        <mxCell id="CD5J2mfkDJYRw3WoCT5E-42" value="&lt;div&gt;Yêu cầu đỗ xe&lt;/div&gt;" style="ellipse;whiteSpace=wrap;html=1;" vertex="1" parent="1">
          <mxGeometry x="635" y="516.5" width="120" height="40" as="geometry" />
        </mxCell>
        <mxCell id="CD5J2mfkDJYRw3WoCT5E-43" value="&lt;div&gt;Nhận biên lai thanh toán&lt;/div&gt;" style="ellipse;whiteSpace=wrap;html=1;" vertex="1" parent="1">
          <mxGeometry x="610" y="586" width="170" height="40" as="geometry" />
        </mxCell>
        <mxCell id="CD5J2mfkDJYRw3WoCT5E-50" style="rounded=0;orthogonalLoop=1;jettySize=auto;html=1;exitX=0.5;exitY=0;exitDx=0;exitDy=0;dashed=1;" edge="1" parent="1" source="CD5J2mfkDJYRw3WoCT5E-44" target="CD5J2mfkDJYRw3WoCT5E-49">
          <mxGeometry relative="1" as="geometry" />
        </mxCell>
        <mxCell id="CD5J2mfkDJYRw3WoCT5E-51" value="&lt;div&gt;extend&lt;/div&gt;" style="edgeLabel;html=1;align=center;verticalAlign=middle;resizable=0;points=[];" vertex="1" connectable="0" parent="CD5J2mfkDJYRw3WoCT5E-50">
          <mxGeometry x="0.0357" y="1" relative="1" as="geometry">
            <mxPoint as="offset" />
          </mxGeometry>
        </mxCell>
        <mxCell id="CD5J2mfkDJYRw3WoCT5E-44" value="&lt;div&gt;Ghi nhận thời gian vào/ra&lt;/div&gt;" style="ellipse;whiteSpace=wrap;html=1;" vertex="1" parent="1">
          <mxGeometry x="650" y="170" width="240" height="40" as="geometry" />
        </mxCell>
        <mxCell id="CD5J2mfkDJYRw3WoCT5E-53" style="rounded=0;orthogonalLoop=1;jettySize=auto;html=1;exitX=0;exitY=0.5;exitDx=0;exitDy=0;entryX=0.5;entryY=1;entryDx=0;entryDy=0;dashed=1;" edge="1" parent="1" source="CD5J2mfkDJYRw3WoCT5E-45" target="CD5J2mfkDJYRw3WoCT5E-52">
          <mxGeometry relative="1" as="geometry" />
        </mxCell>
        <mxCell id="CD5J2mfkDJYRw3WoCT5E-54" value="&lt;div&gt;include&lt;/div&gt;" style="edgeLabel;html=1;align=center;verticalAlign=middle;resizable=0;points=[];" vertex="1" connectable="0" parent="CD5J2mfkDJYRw3WoCT5E-53">
          <mxGeometry x="-0.0464" y="-4" relative="1" as="geometry">
            <mxPoint as="offset" />
          </mxGeometry>
        </mxCell>
        <mxCell id="CD5J2mfkDJYRw3WoCT5E-45" value="&lt;div&gt;Xử lý thanh toán&lt;/div&gt;" style="ellipse;whiteSpace=wrap;html=1;" vertex="1" parent="1">
          <mxGeometry x="780" y="303.5" width="120" height="40" as="geometry" />
        </mxCell>
        <mxCell id="CD5J2mfkDJYRw3WoCT5E-49" value="&lt;div&gt;Cập nhật trạng thái vị trí đỗ xe)&lt;/div&gt;" style="ellipse;whiteSpace=wrap;html=1;" vertex="1" parent="1">
          <mxGeometry x="530" y="70" width="240" height="40" as="geometry" />
        </mxCell>
        <mxCell id="CD5J2mfkDJYRw3WoCT5E-55" style="rounded=0;orthogonalLoop=1;jettySize=auto;html=1;exitX=0;exitY=0.5;exitDx=0;exitDy=0;entryX=1;entryY=0.5;entryDx=0;entryDy=0;dashed=1;" edge="1" parent="1" source="CD5J2mfkDJYRw3WoCT5E-52" target="CD5J2mfkDJYRw3WoCT5E-18">
          <mxGeometry relative="1" as="geometry" />
        </mxCell>
        <mxCell id="CD5J2mfkDJYRw3WoCT5E-56" value="&lt;div&gt;include&lt;/div&gt;" style="edgeLabel;html=1;align=center;verticalAlign=middle;resizable=0;points=[];" vertex="1" connectable="0" parent="CD5J2mfkDJYRw3WoCT5E-55">
          <mxGeometry x="-0.245" relative="1" as="geometry">
            <mxPoint as="offset" />
          </mxGeometry>
        </mxCell>
        <mxCell id="CD5J2mfkDJYRw3WoCT5E-52" value="&lt;div&gt;Tính phí đỗ xe&lt;/div&gt;" style="ellipse;whiteSpace=wrap;html=1;" vertex="1" parent="1">
          <mxGeometry x="565" y="223.5" width="120" height="40" as="geometry" />
        </mxCell>
        <mxCell id="CD5J2mfkDJYRw3WoCT5E-57" style="rounded=0;orthogonalLoop=1;jettySize=auto;html=1;exitX=1;exitY=0;exitDx=0;exitDy=0;entryX=0.43;entryY=0.931;entryDx=0;entryDy=0;entryPerimeter=0;dashed=1;" edge="1" parent="1" source="CD5J2mfkDJYRw3WoCT5E-43" target="CD5J2mfkDJYRw3WoCT5E-45">
          <mxGeometry relative="1" as="geometry" />
        </mxCell>
        <mxCell id="CD5J2mfkDJYRw3WoCT5E-58" value="&lt;div&gt;include&lt;/div&gt;" style="edgeLabel;html=1;align=center;verticalAlign=middle;resizable=0;points=[];" vertex="1" connectable="0" parent="CD5J2mfkDJYRw3WoCT5E-57">
          <mxGeometry x="0.3188" y="-2" relative="1" as="geometry">
            <mxPoint x="2" y="24" as="offset" />
          </mxGeometry>
        </mxCell>
        <mxCell id="CD5J2mfkDJYRw3WoCT5E-61" value="" style="rounded=0;orthogonalLoop=1;jettySize=auto;html=1;exitX=0;exitY=0.3333333333333333;exitDx=0;exitDy=0;exitPerimeter=0;entryX=1;entryY=0.5;entryDx=0;entryDy=0;" edge="1" parent="1" source="CD5J2mfkDJYRw3WoCT5E-3" target="CD5J2mfkDJYRw3WoCT5E-42">
          <mxGeometry relative="1" as="geometry">
            <mxPoint x="945" y="440" as="sourcePoint" />
            <mxPoint x="754" y="452" as="targetPoint" />
          </mxGeometry>
        </mxCell>
        <mxCell id="CD5J2mfkDJYRw3WoCT5E-62" value="" style="rounded=0;orthogonalLoop=1;jettySize=auto;html=1;entryX=0.967;entryY=0.316;entryDx=0;entryDy=0;entryPerimeter=0;exitX=0;exitY=0.3333333333333333;exitDx=0;exitDy=0;exitPerimeter=0;" edge="1" parent="1" source="CD5J2mfkDJYRw3WoCT5E-3" target="CD5J2mfkDJYRw3WoCT5E-43">
          <mxGeometry relative="1" as="geometry">
            <mxPoint x="920" y="416" as="sourcePoint" />
            <mxPoint x="765" y="547" as="targetPoint" />
          </mxGeometry>
        </mxCell>
        <mxCell id="CD5J2mfkDJYRw3WoCT5E-63" value="" style="rounded=0;orthogonalLoop=1;jettySize=auto;html=1;entryX=1;entryY=0.5;entryDx=0;entryDy=0;exitX=0;exitY=0.3333333333333333;exitDx=0;exitDy=0;exitPerimeter=0;" edge="1" parent="1" source="CD5J2mfkDJYRw3WoCT5E-1" target="CD5J2mfkDJYRw3WoCT5E-44">
          <mxGeometry relative="1" as="geometry">
            <mxPoint x="920" y="171" as="sourcePoint" />
            <mxPoint x="774" y="350" as="targetPoint" />
          </mxGeometry>
        </mxCell>
        <mxCell id="CD5J2mfkDJYRw3WoCT5E-66" value="" style="rounded=0;orthogonalLoop=1;jettySize=auto;html=1;entryX=0.5;entryY=0;entryDx=0;entryDy=0;exitX=0;exitY=0.3333333333333333;exitDx=0;exitDy=0;exitPerimeter=0;" edge="1" parent="1" source="CD5J2mfkDJYRw3WoCT5E-1" target="CD5J2mfkDJYRw3WoCT5E-45">
          <mxGeometry relative="1" as="geometry">
            <mxPoint x="980" y="190" as="sourcePoint" />
            <mxPoint x="900" y="200" as="targetPoint" />
          </mxGeometry>
        </mxCell>
      </root>
    </mxGraphModel>
  </diagram>
</mxfile>
